<svg xmlns="http://www.w3.org/2000/svg" width="21" height="15" viewBox="0 0 21 15" fill="none">
  <g clip-path="url(#clip0_71465_2512)">
    <path d="M19.4043 14.7547C19.1696 14.7551 18.9411 14.6803 18.7522 14.5412L10.5001 8.458L2.24809 14.5412C2.13224 14.6267 2.00066 14.6887 1.86086 14.7234C1.72106 14.7582 1.57577 14.7651 1.43331 14.7437C1.29084 14.7223 1.15397 14.6732 1.03053 14.599C0.907083 14.5247 0.799474 14.427 0.713845 14.3112C0.628216 14.1954 0.566244 14.0639 0.531467 13.9243C0.49669 13.7846 0.48979 13.6394 0.51116 13.497C0.554319 13.2095 0.71001 12.9509 0.943982 12.7781L9.84809 6.20761C10.0368 6.06802 10.2654 5.99268 10.5001 5.99268C10.7349 5.99268 10.9635 6.06802 11.1522 6.20761L20.0563 12.7781C20.2422 12.915 20.3801 13.1071 20.4503 13.327C20.5204 13.5469 20.5193 13.7833 20.4469 14.0025C20.3746 14.2216 20.2349 14.4124 20.0476 14.5475C19.8604 14.6826 19.6352 14.7551 19.4043 14.7547Z" fill="#FF3D00"/>
    <path d="M19.4043 9.00568C19.1696 9.00609 18.9411 8.93124 18.7522 8.79214L10.5002 2.70898L2.2481 8.79214C2.01412 8.96495 1.72104 9.0378 1.43331 8.99468C1.14558 8.95155 0.886785 8.79597 0.713849 8.56218C0.540914 8.32838 0.468006 8.03551 0.511165 7.74799C0.554324 7.46048 0.710015 7.20187 0.943986 7.02906L9.8481 0.458588C10.0368 0.318997 10.2654 0.243652 10.5002 0.243652C10.7349 0.243652 10.9635 0.318997 11.1522 0.458588L20.0563 7.02906C20.2422 7.16598 20.3801 7.35809 20.4503 7.57797C20.5204 7.79785 20.5193 8.03426 20.447 8.25344C20.3746 8.47262 20.2349 8.66338 20.0476 8.79847C19.8604 8.93356 19.6352 9.00608 19.4043 9.00568Z" fill="#FF3D00"/>
  </g>
  <defs>
    <clipPath id="clip0_71465_2512">
      <rect width="20" height="14.5098" fill="white" transform="translate(0.5 0.245117)"/>
    </clipPath>
  </defs>
</svg>