<svg width="32" height="33" viewBox="0 0 32 33" fill="none" xmlns="http://www.w3.org/2000/svg">
<g id="search">
<mask id="mask0_71911_2655" style="mask-type:alpha" maskUnits="userSpaceOnUse" x="0" y="0" width="32" height="33">
<rect id="Bounding box" y="0.5" width="32" height="32" fill="#D9D9D9"/>
</mask>
<g mask="url(#mask0_71911_2655)">
<path id="search_2" d="M13.7118 20.7137C11.8946 20.7137 10.3567 20.0843 9.098 18.8256C7.83931 17.5669 7.20996 16.029 7.20996 14.2118C7.20996 12.3946 7.83931 10.8567 9.098 9.598C10.3567 8.33931 11.8946 7.70996 13.7118 7.70996C15.529 7.70996 17.0669 8.33931 18.3256 9.598C19.5843 10.8567 20.2137 12.3946 20.2137 14.2118C20.2137 14.9454 20.097 15.6372 19.8636 16.2874C19.6302 16.9376 19.3134 17.5127 18.9133 18.0129L24.5149 23.6145C24.6983 23.7979 24.79 24.0313 24.79 24.3147C24.79 24.5981 24.6983 24.8315 24.5149 25.0149C24.3315 25.1983 24.0981 25.29 23.8147 25.29C23.5313 25.29 23.2979 25.1983 23.1145 25.0149L17.5129 19.4133C17.0127 19.8134 16.4376 20.1302 15.7874 20.3636C15.1372 20.597 14.4454 20.7137 13.7118 20.7137ZM13.7118 18.7131C14.9622 18.7131 16.025 18.2755 16.9002 17.4002C17.7755 16.525 18.2131 15.4622 18.2131 14.2118C18.2131 12.9615 17.7755 11.8987 16.9002 11.0234C16.025 10.1482 14.9622 9.71053 13.7118 9.71053C12.4615 9.71053 11.3987 10.1482 10.5234 11.0234C9.64815 11.8987 9.21053 12.9615 9.21053 14.2118C9.21053 15.4622 9.64815 16.525 10.5234 17.4002C11.3987 18.2755 12.4615 18.7131 13.7118 18.7131Z" fill="#2A3647"/>
</g>
</g>
</svg>
