<svg width="32" height="32" viewBox="0 0 32 32" fill="none" xmlns="http://www.w3.org/2000/svg">
<mask id="mask0_73007_4104" style="mask-type:alpha" maskUnits="userSpaceOnUse" x="4" y="4" width="24" height="24">
<rect x="4" y="4" width="24" height="24" fill="#D9D9D9"/>
</mask>
<g mask="url(#mask0_73007_4104)">
<path d="M16 17.3998L11.1 22.2998C10.9167 22.4831 10.6834 22.5748 10.4 22.5748C10.1167 22.5748 9.88338 22.4831 9.70005 22.2998C9.51672 22.1165 9.42505 21.8831 9.42505 21.5998C9.42505 21.3165 9.51672 21.0831 9.70005 20.8998L14.6 15.9998L9.70005 11.0998C9.51672 10.9165 9.42505 10.6831 9.42505 10.3998C9.42505 10.1165 9.51672 9.88314 9.70005 9.6998C9.88338 9.51647 10.1167 9.4248 10.4 9.4248C10.6834 9.4248 10.9167 9.51647 11.1 9.6998L16 14.5998L20.9 9.6998C21.0834 9.51647 21.3167 9.4248 21.6 9.4248C21.8834 9.4248 22.1167 9.51647 22.3 9.6998C22.4834 9.88314 22.575 10.1165 22.575 10.3998C22.575 10.6831 22.4834 10.9165 22.3 11.0998L17.4 15.9998L22.3 20.8998C22.4834 21.0831 22.575 21.3165 22.575 21.5998C22.575 21.8831 22.4834 22.1165 22.3 22.2998C22.1167 22.4831 21.8834 22.5748 21.6 22.5748C21.3167 22.5748 21.0834 22.4831 20.9 22.2998L16 17.3998Z" fill="#2A3647"/>
</g>
</svg>
