<svg xmlns="http://www.w3.org/2000/svg" height="24" viewBox="0 -960 960 960" width="24" fill="#D1D1D1"><path d="M120-160v-40h340v-442.385q-28.308-5.154-50-25.692T382.385-720h-137.77L360-431.539q-2.308 40.001-37.154 68.078Q288-335.385 240-335.385q-48 0-82.846-28.076-34.847-28.077-37.154-68.078L235.384-720H160v-40h222.385q6.615-33.462 33.384-56.731T480-840q37.462 0 64.231 23.269Q571-793.462 577.615-760H800v40h-75.384L840-431.539q-2.307 40.001-37.154 68.078Q768-335.385 720-335.385q-48 0-82.846-28.076-34.846-28.077-37.154-68.078L715.385-720h-137.77q-5.923 31.385-27.615 51.923t-50 25.692V-200h340v40H120Zm519.616-275.385h160.769L720-636.308l-80.384 200.923Zm-480.001 0h160.769L240-636.308l-80.385 200.923ZM480-680q24.692 0 42.346-17.654Q540-715.308 540-740q0-24.692-17.654-42.346Q504.692-800 480-800q-24.692 0-42.346 17.654Q420-764.692 420-740q0 24.692 17.654 42.346Q455.308-680 480-680Z"/></svg>