<svg xmlns="http://www.w3.org/2000/svg" height="24" viewBox="0 -960 960 960" width="24" fill="#D1D1D1"><path d="M480-121.538q-120.539-35.769-200.269-146.039Q200-377.846 200-516v-216.308l280-104.615 280 104.615V-516q0 138.154-79.731 248.423Q600.539-157.307 480-121.538Zm0-357.693ZM480-400q33 0 56.5-23.5T560-480q0-33-23.5-56.5T480-560q-33 0-56.5 23.5T400-480q0 33 23.5 56.5T480-400Zm0 236q49.615-16.308 91.846-48.308t74-76.153l-95.077-95.077q-14.923 11.769-33.115 17.654Q499.462-360 480-360q-49.846 0-84.923-35.077Q360-430.154 360-480q0-49.846 35.077-84.923Q430.154-600 480-600q49.846 0 84.923 35.077Q600-529.846 600-480q0 18.154-5.5 35.577t-14.961 32.577l89 89q24.615-43.077 38.038-91.808Q720-463.385 720-516v-189l-240-89.231L240-705v189q0 121 68 220t172 132Z"/></svg>