<svg width="35" height="26" viewBox="0 0 35 26" fill="none" xmlns="http://www.w3.org/2000/svg">
<g id="Prio alta" clip-path="url(#clip0_73484_2558)">
<g id="Capa 2">
<g id="Capa 1">
<path id="Vector" d="M32.8709 25.6626C32.4699 25.6633 32.0792 25.5337 31.7563 25.2929L17.6511 14.763L3.54584 25.2929C3.34781 25.441 3.1229 25.5482 2.88394 25.6084C2.64497 25.6685 2.39664 25.6805 2.15312 25.6435C1.9096 25.6066 1.67566 25.5214 1.46465 25.393C1.25365 25.2645 1.06971 25.0953 0.923347 24.8949C0.776981 24.6945 0.671052 24.4669 0.611608 24.2251C0.552165 23.9832 0.54037 23.7319 0.576898 23.4855C0.65067 22.9878 0.916792 22.5402 1.31672 22.2411L16.5365 10.8677C16.8591 10.626 17.2498 10.4956 17.6511 10.4956C18.0524 10.4956 18.4431 10.626 18.7657 10.8677L33.9855 22.2411C34.3033 22.4781 34.5389 22.8106 34.6588 23.1912C34.7788 23.5718 34.7768 23.981 34.6532 24.3604C34.5296 24.7398 34.2907 25.07 33.9706 25.3039C33.6506 25.5377 33.2657 25.6633 32.8709 25.6626Z" fill="white"/>
<path id="Vector_2" d="M32.8708 15.7109C32.4697 15.7116 32.0791 15.582 31.7562 15.3413L17.651 4.81139L3.54572 15.3413C3.1458 15.6404 2.64482 15.7665 2.15301 15.6919C1.6612 15.6172 1.21883 15.3479 0.923233 14.9432C0.627633 14.5385 0.503012 14.0315 0.576784 13.5339C0.650556 13.0362 0.916678 12.5885 1.31661 12.2894L16.5364 0.915997C16.859 0.674366 17.2497 0.543945 17.651 0.543945C18.0523 0.543945 18.443 0.674366 18.7655 0.915997L33.9854 12.2894C34.3031 12.5264 34.5388 12.859 34.6587 13.2396C34.7786 13.6202 34.7767 14.0294 34.6531 14.4088C34.5295 14.7882 34.2906 15.1184 33.9705 15.3522C33.6505 15.5861 33.2656 15.7116 32.8708 15.7109Z" fill="white"/>
</g>
</g>
</g>
<defs>
<clipPath id="clip0_73484_2558">
<rect width="34.186" height="25.1163" fill="white" transform="translate(0.558105 0.546387)"/>
</clipPath>
</defs>
</svg>
