<svg width="19" height="19" viewBox="0 0 19 19" fill="none" xmlns="http://www.w3.org/2000/svg">
<g id="Recurso 1 1" clip-path="url(#clip0_71465_2417)">
<g id="Capa 2">
<g id="Capa 1">
<path id="Vector" d="M18.9 0V1.69C18.9017 2.31796 18.7788 2.94002 18.5385 3.52019C18.2982 4.10036 17.9452 4.62712 17.5 5.07L5.07 17.5C4.62712 17.9452 4.10036 18.2982 3.52019 18.5385C2.94002 18.7788 2.31796 18.9017 1.69 18.9H0L18.9 0Z" fill="#D1D1D1"/>
<path id="Vector_2" d="M18.9001 6.31006V8.00006C18.9006 8.62786 18.7772 9.2496 18.537 9.82961C18.2967 10.4096 17.9444 10.9365 17.5001 11.3801L11.3801 17.5001C10.9365 17.9444 10.4096 18.2967 9.82961 18.537C9.2496 18.7772 8.62786 18.9006 8.00006 18.9001H6.31006L18.9001 6.31006Z" fill="#D1D1D1"/>
<path id="Vector_3" d="M18.8999 12.4299V14.1199C18.9005 14.7477 18.7771 15.3695 18.5369 15.9495C18.2966 16.5295 17.9442 17.0564 17.4999 17.4999C17.0564 17.9442 16.5295 18.2966 15.9495 18.5369C15.3695 18.7771 14.7477 18.9005 14.1199 18.8999H12.4299L18.8999 12.4299Z" fill="#D1D1D1"/>
</g>
</g>
</g>
<defs>
<clipPath id="clip0_71465_2417">
<rect width="18.9" height="18.9" fill="white"/>
</clipPath>
</defs>
</svg>
